<mxfile host="65bd71144e">
    <diagram id="ORZf2WC3BYTbggzDq-X-" name="Page-1">
        <mxGraphModel dx="938" dy="666" grid="1" gridSize="10" guides="1" tooltips="1" connect="1" arrows="1" fold="1" page="1" pageScale="1" pageWidth="850" pageHeight="1100" math="0" shadow="0">
            <root>
                <mxCell id="0"/>
                <mxCell id="1" parent="0"/>
                <mxCell id="43dZv-fWnXxc7FG_mQIg-3" value="Output&lt;br&gt;&lt;font style=&quot;font-size: 11px&quot;&gt;(Hello! Welcome to the bible quiz by Meleane)&lt;/font&gt;" style="shape=parallelogram;perimeter=parallelogramPerimeter;whiteSpace=wrap;html=1;fixedSize=1;fillColor=#1EFF05;" parent="1" vertex="1">
                    <mxGeometry x="305" y="180" width="185" height="70" as="geometry"/>
                </mxCell>
                <mxCell id="3" value="Score = 0" style="rounded=0;whiteSpace=wrap;html=1;fillColor=#FF3503;" parent="1" vertex="1">
                    <mxGeometry x="305" y="260" width="170" height="60" as="geometry"/>
                </mxCell>
                <mxCell id="5" value="" style="endArrow=classic;html=1;endFill=1;" parent="1" edge="1">
                    <mxGeometry width="50" height="50" relative="1" as="geometry">
                        <mxPoint x="680" y="370" as="sourcePoint"/>
                        <mxPoint x="705" y="630" as="targetPoint"/>
                        <Array as="points">
                            <mxPoint x="697" y="370"/>
                            <mxPoint x="825" y="370"/>
                            <mxPoint x="825" y="630"/>
                        </Array>
                    </mxGeometry>
                </mxCell>
                <mxCell id="6" value="Decision&lt;br&gt;(Q1. In what city was Jesus born?&lt;br&gt;a) Nazareth b) Bethlehem c) Gethsamane d) Egypt" style="rhombus;whiteSpace=wrap;html=1;fillColor=#0066CC;" parent="1" vertex="1">
                    <mxGeometry x="295" y="330" width="190" height="120" as="geometry"/>
                </mxCell>
                <mxCell id="7" value="START" style="strokeWidth=2;html=1;shape=mxgraph.flowchart.terminator;whiteSpace=wrap;fillColor=#FFFF00;" parent="1" vertex="1">
                    <mxGeometry x="355" y="20" width="140" height="70" as="geometry"/>
                </mxCell>
                <mxCell id="8" value="STOP" style="strokeWidth=2;html=1;shape=mxgraph.flowchart.terminator;whiteSpace=wrap;fillColor=#FFFF00;" parent="1" vertex="1">
                    <mxGeometry x="157.5" y="600" width="145" height="70" as="geometry"/>
                </mxCell>
                <mxCell id="10" value="Input&lt;br&gt;(Please enter your name)" style="shape=parallelogram;perimeter=parallelogramPerimeter;whiteSpace=wrap;html=1;fixedSize=1;fillColor=#00994D;" parent="1" vertex="1">
                    <mxGeometry x="315" y="100" width="190" height="70" as="geometry"/>
                </mxCell>
                <mxCell id="11" value="" style="endArrow=classic;html=1;" parent="1" edge="1">
                    <mxGeometry width="50" height="50" relative="1" as="geometry">
                        <mxPoint x="390" y="460" as="sourcePoint"/>
                        <mxPoint x="390" y="500" as="targetPoint"/>
                        <Array as="points">
                            <mxPoint x="390" y="480"/>
                        </Array>
                    </mxGeometry>
                </mxCell>
                <mxCell id="12" value="" style="endArrow=classic;html=1;" parent="1" edge="1">
                    <mxGeometry width="50" height="50" relative="1" as="geometry">
                        <mxPoint x="580" y="200" as="sourcePoint"/>
                        <mxPoint x="630" y="150" as="targetPoint"/>
                    </mxGeometry>
                </mxCell>
                <mxCell id="15" value="A)" style="rounded=0;whiteSpace=wrap;html=1;fillColor=#FF3503;" vertex="1" parent="1">
                    <mxGeometry x="305" y="510" width="170" height="60" as="geometry"/>
                </mxCell>
            </root>
        </mxGraphModel>
    </diagram>
</mxfile>